<?xml version="1.0" encoding="iso-8859-1"?>
<!-- Generator: Adobe Illustrator 19.0.0, SVG Export Plug-In . SVG Version: 6.00 Build 0)  -->
<svg version="1.1" id="Layer_1" xmlns="http://www.w3.org/2000/svg" xmlns:xlink="http://www.w3.org/1999/xlink" x="0px" y="0px"
	 viewBox="0 0 512 512" style="enable-background:new 0 0 512 512;" xml:space="preserve">
<path style="fill:#CCCCCC;" d="M340.175,150.838h-7.042V86.593H179.335v64.245h-7.042c-40.194,0-72.777,32.584-72.777,72.777v228.55
	c0,28.193,22.854,51.047,51.047,51.047h211.345c28.193,0,51.047-22.854,51.047-51.047v-228.55
	C412.954,183.422,380.369,150.838,340.175,150.838z"/>
<path style="fill:#B3B3B3;" d="M179.329,86.596h28.345v64.246h-4.452c-25.386,0-45.959,32.58-45.959,72.776v228.543
	c0,28.201,14.425,51.048,32.231,51.048h-38.933c-28.189,0-51.048-22.847-51.048-51.048V223.619c0-40.196,32.58-72.776,72.776-72.776
	h7.038V86.596z"/>
<path style="fill:#E88158;" d="M334.11,86.593H178.357c-21.355,0-38.667-17.312-38.667-38.667l0,0
	c0-21.355,17.312-38.667,38.667-38.667H334.11c21.355,0,38.667,17.312,38.667,38.667l0,0
	C372.777,69.281,355.465,86.593,334.11,86.593z"/>
<path style="fill:#D37250;" d="M226.651,86.596h-48.293c-21.355,0-38.668-17.313-38.668-38.668c0-10.672,4.331-20.345,11.321-27.347
	c7.002-6.99,16.675-11.321,27.347-11.321h48.293c-10.672,0-20.345,4.331-27.347,11.321c-6.99,7.002-11.321,16.675-11.321,27.347
	C187.984,69.284,205.295,86.596,226.651,86.596z"/>
<path style="fill:#E88158;" d="M256.234,193.211L256.234,193.211c-53.772,0-97.362,43.59-97.362,97.362v58.641
	c0,21.385,17.336,38.721,38.721,38.721h0.112v34.073h117.057v-34.073h0.112c21.385,0,38.721-17.336,38.721-38.721v-58.641
	C353.595,236.801,310.005,193.211,256.234,193.211z"/>
<g>
	<circle style="fill:#808080;" cx="216.308" cy="328.738" r="24.823"/>
	<circle style="fill:#808080;" cx="296.17" cy="328.738" r="24.823"/>
</g>
<path d="M412.72,287.727c4.983,0,9.023-4.04,9.023-9.023v-55.324c0-44.442-35.628-80.72-79.82-81.779V94.687
	c22.477-3.837,39.644-23.444,39.644-46.997c0-26.296-21.394-47.69-47.69-47.69H242.34c-4.983,0-9.023,4.04-9.023,9.023
	s4.04,9.023,9.023,9.023h91.536c16.345,0,29.643,13.298,29.643,29.643s-13.298,29.643-29.643,29.643H178.123
	c-16.345,0-29.643-13.298-29.643-29.643s13.298-29.643,29.643-29.643h34.141c4.983,0,9.023-4.04,9.023-9.023S217.247,0,212.264,0
	h-34.141c-26.296,0-47.69,21.394-47.69,47.69c0,23.553,17.167,43.16,39.644,46.997v46.914c-44.192,1.058-79.82,37.336-79.82,81.778
	v228.55c0,33.123,26.947,60.07,60.071,60.07h211.345c33.123,0,60.071-26.947,60.071-60.07V308.781c0-4.983-4.04-9.023-9.023-9.023
	c-4.983,0-9.023,4.04-9.023,9.023V451.93c0,23.172-18.852,42.023-42.025,42.023H150.328c-23.172,0-42.025-18.852-42.025-42.024
	v-228.55c0-35.155,28.6-63.755,63.755-63.755h7.042c4.983,0,9.023-4.04,9.023-9.023V95.38h135.752v55.22
	c0,4.983,4.04,9.023,9.023,9.023h7.042c35.155,0,63.755,28.6,63.755,63.755v55.324C403.697,283.687,407.737,287.727,412.72,287.727z
	"/>
<path d="M197.472,430.795h117.057c4.983,0,9.023-4.04,9.023-9.023v-25.885c22.082-4.186,38.833-23.629,38.833-46.911v-58.641
	c0-21.662-6.473-42.508-18.719-60.286c-2.826-4.104-8.445-5.14-12.55-2.311c-4.104,2.827-5.138,8.446-2.311,12.55
	c10.161,14.751,15.533,32.058,15.533,50.047v58.641c0,16.376-13.322,29.698-29.81,29.698c-4.983,0-9.023,4.04-9.023,9.023v25.05
	h-99.01v-25.05c0-4.983-4.152-9.023-9.135-9.023c-16.376,0-29.698-13.322-29.698-29.698v-58.641
	c0-48.709,39.628-88.337,88.339-88.337c17.703,0,34.78,5.214,49.384,15.082c4.13,2.789,9.739,1.704,12.529-2.425
	c2.79-4.13,1.704-9.739-2.425-12.529c-17.599-11.889-38.17-18.174-59.488-18.174c-58.66,0-106.384,47.724-106.384,106.384v58.641
	c0,23.254,16.712,42.679,38.833,46.896v25.898C188.448,426.755,192.488,430.795,197.472,430.795z"/>
<path d="M216.069,294.652c-18.663,0-33.846,15.183-33.846,33.846s15.183,33.846,33.846,33.846s33.846-15.183,33.846-33.846
	S234.731,294.652,216.069,294.652z M216.069,344.297c-8.712,0-15.799-7.088-15.799-15.799s7.088-15.799,15.799-15.799
	c8.712,0,15.799,7.088,15.799,15.799S224.78,344.297,216.069,344.297z"/>
<path d="M295.932,362.344c18.663,0,33.846-15.183,33.846-33.846s-15.183-33.846-33.846-33.846s-33.846,15.183-33.846,33.846
	S277.269,362.344,295.932,362.344z M295.932,312.698c8.712,0,15.799,7.088,15.799,15.799s-7.088,15.799-15.799,15.799
	s-15.799-7.088-15.799-15.799S287.22,312.698,295.932,312.698z"/>
<path d="M256.001,390.244c4.983,0,9.023-4.04,9.023-9.023V367.35c0-4.983-4.04-9.023-9.023-9.023c-4.983,0-9.023,4.04-9.023,9.023
	v13.871C246.977,386.204,251.017,390.244,256.001,390.244z"/>
<g>
</g>
<g>
</g>
<g>
</g>
<g>
</g>
<g>
</g>
<g>
</g>
<g>
</g>
<g>
</g>
<g>
</g>
<g>
</g>
<g>
</g>
<g>
</g>
<g>
</g>
<g>
</g>
<g>
</g>
</svg>
